<svg width="23" height="23" viewBox="0 0 23 23" fill="none" xmlns="http://www.w3.org/2000/svg">
<path d="M4.91953 0.494151C4.53477 0.462901 4.10703 0.574229 3.7125 0.851573C3.36485 1.09376 2.61485 1.68946 1.91367 2.36329C1.56406 2.69923 1.23008 3.04884 0.972268 3.39259C0.712502 3.73634 0.48594 4.05079 0.499612 4.50782C0.513284 4.91798 0.554299 6.13087 1.42735 7.99024C2.30039 9.84767 3.99375 12.3965 7.29649 15.7012C10.6012 19.0059 13.15 20.6992 15.0074 21.5723C16.8648 22.4453 18.0797 22.4863 18.4898 22.5C18.9449 22.5137 19.2594 22.2871 19.6031 22.0274C19.9469 21.7676 20.2965 21.4356 20.6324 21.0859C21.3043 20.3848 21.9 19.6348 22.1422 19.2871C22.6949 18.5 22.6031 17.5703 21.9879 17.1387C21.6012 16.8672 18.0445 14.5 17.5094 14.1719C16.9664 13.8399 16.3414 13.9902 15.7828 14.2852C15.3434 14.5176 14.1539 15.1992 13.8141 15.3945C13.5582 15.2324 12.5875 14.5859 10.4996 12.4981C8.40977 10.4102 7.76524 9.43946 7.60313 9.1836C7.79844 8.84376 8.47813 7.66017 8.7125 7.2129C9.00547 6.65626 9.16953 6.0254 8.81992 5.47853C8.67344 5.2461 8.00742 4.23243 7.33555 3.21485C6.66172 2.19728 6.02305 1.23243 5.85703 1.00196V1.00001C5.64024 0.701182 5.30235 0.525401 4.91953 0.494151ZM4.82774 1.51564C4.96446 1.53321 5.04649 1.5879 5.04649 1.5879C5.12656 1.69923 5.82774 2.75001 6.49961 3.76564C7.17149 4.78321 7.85703 5.82618 7.97617 6.01564C7.99571 6.04493 8.02305 6.37696 7.82774 6.7461V6.74806C7.60703 7.16798 6.57774 8.96681 6.57774 8.96681L6.43516 9.21876L6.58164 9.46876C6.58164 9.46876 7.34922 10.7637 9.79063 13.2051C12.234 15.6465 13.5289 16.416 13.5289 16.416L13.7789 16.5625L14.0309 16.4199C14.0309 16.4199 15.8258 15.3926 16.2496 15.1699C16.6188 14.9766 16.9508 15.002 16.9898 15.0254C17.3356 15.2383 21.1773 17.791 21.4137 17.957C21.4215 17.9629 21.6305 18.2793 21.3258 18.7129H21.3238C21.1402 18.9766 20.5387 19.7402 19.9117 20.3926C19.5973 20.7188 19.275 21.0234 19.0016 21.2285C18.7281 21.4336 18.484 21.4981 18.5231 21.5C18.0973 21.4863 17.1578 21.4766 15.4332 20.666C13.7086 19.8574 11.2477 18.2383 8.00352 14.9922C4.76133 11.75 3.14219 9.28907 2.33164 7.56251C1.52305 5.8379 1.51328 4.89845 1.49961 4.47462C1.50156 4.51368 1.56602 4.26759 1.7711 3.99415C1.97617 3.72071 2.27891 3.39649 2.60508 3.08204C3.25938 2.45509 4.0211 1.85353 4.28477 1.66993V1.67189C4.50156 1.51954 4.69102 1.50001 4.82774 1.51564Z" fill="url(#paint0_linear_177_1727)"/>
<defs>
<linearGradient id="paint0_linear_177_1727" x1="11.5034" y1="0.489044" x2="11.5034" y2="22.5006" gradientUnits="userSpaceOnUse">
<stop stop-color="#4ABCEC"/>
<stop offset="1" stop-color="#4A8BEC"/>
</linearGradient>
</defs>
</svg>
