<svg width="32" height="22" viewBox="0 0 32 22" fill="none" xmlns="http://www.w3.org/2000/svg">
<path d="M10.5503 0.940063C4.90826 0.940063 0.320312 5.52801 0.320312 11.1701C0.320312 16.8121 4.90826 21.4001 10.5503 21.4001C16.1924 21.4001 20.7803 16.8121 20.7803 11.1701C20.7803 5.52801 16.1924 0.940063 10.5503 0.940063ZM16.1603 6.88006C16.3291 6.88006 16.4979 6.94439 16.627 7.07342C16.885 7.33148 16.885 7.74864 16.627 8.0067L8.70695 15.9267C8.57825 16.0554 8.40927 16.1201 8.24031 16.1201C8.07135 16.1201 7.90237 16.0554 7.77367 15.9267L4.47367 12.6267C4.21561 12.3686 4.21561 11.9515 4.47367 11.6934C4.73173 11.4354 5.14889 11.4354 5.40695 11.6934L8.24031 14.5268L15.6937 7.07342C15.8227 6.94439 15.9915 6.88006 16.1603 6.88006ZM24.0803 10.8401C23.9053 10.8401 23.7374 10.9096 23.6136 11.0334C23.4898 11.1571 23.4203 11.325 23.4203 11.5001C23.4203 11.6751 23.4898 11.843 23.6136 11.9668C23.7374 12.0905 23.9053 12.1601 24.0803 12.1601H32.0003V10.8401H24.0803Z" fill="url(#paint0_linear_177_1846)"/>
<defs>
<linearGradient id="paint0_linear_177_1846" x1="36.0619" y1="0.940064" x2="13.9161" y2="31.32" gradientUnits="userSpaceOnUse">
<stop offset="0.25" stop-color="#3B768F"/>
<stop offset="0.536458" stop-color="#3EC6FF"/>
<stop offset="0.817708" stop-color="#3B768F"/>
</linearGradient>
</defs>
</svg>
