<svg width="139" height="394" viewBox="0 0 139 394" fill="none" xmlns="http://www.w3.org/2000/svg">
<circle opacity="0.05" cx="69.5" cy="69.5" r="69.5" fill="white"/>
<g filter="url(#filter0_d_177_2213)">
<circle cx="69" cy="70" r="50" fill="url(#paint0_linear_177_2213)" shape-rendering="crispEdges"/>
</g>
<path d="M70 51.8C63.1438 51.8 57.3938 56.625 55.95 63.05C56.0969 63.0344 56.25 63 56.4 63C56.8094 63 57.2031 63.0844 57.575 63.2C58.9313 57.5906 63.9781 53.4 70 53.4C76.0188 53.4 81.0688 57.5906 82.425 63.2C82.7969 63.0844 83.1875 63 83.6 63C83.75 63 83.9031 63.0344 84.05 63.05C82.6063 56.625 76.8531 51.8 70 51.8ZM56.4 64.6C55.0781 64.6 54 65.6781 54 67V79C54 80.3219 55.0781 81.4 56.4 81.4C57.7219 81.4 58.8 80.3219 58.8 79V67C58.8 65.6781 57.7219 64.6 56.4 64.6ZM83.6 64.6C82.2781 64.6 81.2 65.6781 81.2 67V79C81.2 80.3219 82.2781 81.4 83.6 81.4C84.9219 81.4 86 80.3219 86 79V67C86 65.6781 84.9219 64.6 83.6 64.6ZM52.4 67.1C50.9563 68.2594 50 70.4344 50 73C50 75.5656 50.9563 77.7406 52.4 78.9V67.1ZM87.6 67.1V78.9C89.0438 77.7406 90 75.5656 90 73C90 70.4344 89.0438 68.2594 87.6 67.1ZM82.475 82.825C81.7688 84.9969 79.9344 86.2 77.2 86.2H76.325C76.3781 86.4594 76.4 86.725 76.4 87C76.4 87.275 76.3781 87.5406 76.325 87.8H77.2C80.7938 87.8 83.2813 85.9938 84.1 82.95C83.9313 82.9719 83.7719 83 83.6 83C83.2063 83 82.8344 82.9313 82.475 82.825ZM68.4 84.6C67.0781 84.6 66 85.6781 66 87C66 88.3219 67.0781 89.4 68.4 89.4H72.4C73.7219 89.4 74.8 88.3219 74.8 87C74.8 85.6781 73.7219 84.6 72.4 84.6H68.4Z" fill="white"/>
<path d="M73 393.22L65.92 393.22L65.92 388.58L66.98 388.58L66.98 391.96L68.8 391.96L68.8 390.71C68.8 389.923 68.9733 389.29 69.32 388.81C69.6667 388.33 70.1933 388.09 70.9 388.09C71.5933 388.09 72.1167 388.33 72.47 388.81C72.8233 389.29 73 389.92 73 390.7L73 393.22ZM71.94 391.96L71.94 390.84C71.94 389.853 71.5933 389.36 70.9 389.36C70.56 389.36 70.3033 389.49 70.13 389.75C69.95 390.003 69.86 390.367 69.86 390.84L69.86 391.96L71.94 391.96ZM73 383.253L65.92 383.253L65.92 378.563L67.02 378.563L67.02 381.993L68.82 381.993L68.82 378.743L69.88 378.743L69.88 381.993L71.88 381.993L71.88 378.383L73 378.383L73 383.253ZM66.82 367.479L67.58 368.439C67.34 368.613 67.16 368.849 67.04 369.149C66.9133 369.443 66.85 369.743 66.85 370.049C66.85 370.769 67.0967 371.359 67.59 371.819C68.0833 372.273 68.7 372.499 69.44 372.499C70.2133 372.499 70.8433 372.283 71.33 371.849C71.81 371.409 72.05 370.826 72.05 370.099C72.05 369.353 71.7767 368.779 71.23 368.379L71.94 367.369C72.7667 368.029 73.18 368.943 73.18 370.109C73.18 371.216 72.8333 372.123 72.14 372.829C71.44 373.536 70.54 373.889 69.44 373.889C68.3267 373.889 67.4333 373.529 66.76 372.809C66.08 372.083 65.74 371.163 65.74 370.049C65.74 369.556 65.8333 369.073 66.02 368.599C66.2 368.119 66.4667 367.746 66.82 367.479ZM73 362.986L65.92 362.986L65.92 357.216L73 357.216L73 358.476L67.02 358.476L67.02 361.726L73 361.726L73 362.986ZM73.07 351.922C73.07 352.262 73.0367 352.542 72.97 352.762L71.86 352.632C71.9067 352.492 71.93 352.349 71.93 352.202C71.93 351.702 71.6367 351.342 71.05 351.122C70.4633 350.896 69.4267 350.782 67.94 350.782L65.92 350.782L65.92 345.912L73 345.912L73 347.172L67.02 347.172L67.02 349.572L68.11 349.572C69.85 349.572 71.1133 349.756 71.9 350.122C72.68 350.482 73.07 351.082 73.07 351.922ZM73 341.617L65.92 338.537L65.92 337.447L73 334.397L73 335.837L71.38 336.497L71.38 339.567L73 340.207L73 341.617ZM70.3 339.137L70.3 336.937L67.42 338.027L70.3 339.137ZM73 329.262L67.02 329.262L67.02 331.432L65.92 331.432L65.92 325.832L67.02 325.832L67.02 328.002L73 328.002L73 329.262ZM73 321.409L65.92 321.409L65.92 320.149L68.78 320.149L68.78 316.839L65.92 316.839L65.92 315.579L73 315.579L73 316.839L69.86 316.839L69.86 320.149L73 320.149L73 321.409ZM73 311.276L65.92 308.196L65.92 307.106L73 304.056L73 305.496L71.38 306.156L71.38 309.226L73 309.866L73 311.276ZM70.3 308.796L70.3 306.596L67.42 307.686L70.3 308.796ZM73 300.346L70 298.446C69.8733 298.939 69.64 299.322 69.3 299.596C68.96 299.869 68.5333 300.006 68.02 300.006C67.3 300.006 66.77 299.772 66.43 299.306C66.09 298.832 65.92 298.176 65.92 297.336L65.92 295.016L73 295.016L73 296.276L70.17 296.276L70.17 297.156L73 298.816L73 300.346ZM69.14 297.216L69.14 296.276L66.98 296.276L66.98 297.256C66.98 298.256 67.3367 298.756 68.05 298.756C68.4167 298.756 68.69 298.619 68.87 298.346C69.05 298.072 69.14 297.696 69.14 297.216ZM73 283.757L65.92 283.757L65.92 282.497L68.98 282.497L68.98 282.467L65.92 279.507L65.92 277.807L69.19 281.117L73 277.587L73 279.357L69.45 282.467L69.45 282.497L73 282.497L73 283.757ZM69.44 274.003C68.32 274.003 67.4233 273.649 66.75 272.943C66.0767 272.229 65.74 271.319 65.74 270.213C65.74 269.093 66.0767 268.176 66.75 267.463C67.4233 266.749 68.32 266.393 69.44 266.393C70.54 266.393 71.44 266.753 72.14 267.473C72.8333 268.186 73.18 269.099 73.18 270.213C73.18 271.313 72.8333 272.219 72.14 272.933C71.44 273.646 70.54 274.003 69.44 274.003ZM69.44 272.633C70.2 272.633 70.8267 272.406 71.32 271.953C71.8067 271.499 72.05 270.916 72.05 270.203C72.05 269.483 71.8067 268.896 71.32 268.443C70.8267 267.989 70.2 267.763 69.44 267.763C68.7 267.763 68.0833 267.989 67.59 268.443C67.0967 268.889 66.85 269.476 66.85 270.203C66.85 270.923 67.0967 271.509 67.59 271.963C68.0833 272.409 68.7 272.633 69.44 272.633ZM73 261.576L65.92 261.576L65.92 260.316L68.78 260.316L68.78 257.006L65.92 257.006L65.92 255.746L73 255.746L73 257.006L69.86 257.006L69.86 260.316L73 260.316L73 261.576ZM66.82 244.514L67.58 245.474C67.34 245.647 67.16 245.884 67.04 246.184C66.9133 246.477 66.85 246.777 66.85 247.084C66.85 247.804 67.0967 248.394 67.59 248.854C68.0833 249.307 68.7 249.534 69.44 249.534C70.2133 249.534 70.8433 249.317 71.33 248.884C71.81 248.444 72.05 247.86 72.05 247.134C72.05 246.387 71.7767 245.814 71.23 245.414L71.94 244.404C72.7667 245.064 73.18 245.977 73.18 247.144C73.18 248.25 72.8333 249.157 72.14 249.864C71.44 250.57 70.54 250.924 69.44 250.924C68.3267 250.924 67.4333 250.564 66.76 249.844C66.08 249.117 65.74 248.197 65.74 247.084C65.74 246.59 65.8333 246.107 66.02 245.634C66.2 245.154 66.4667 244.78 66.82 244.514ZM73.1 239.341C73.1 239.687 73.07 239.987 73.01 240.241L71.89 240.081C71.95 239.887 71.98 239.691 71.98 239.491C71.98 239.231 71.9167 239.024 71.79 238.871C71.6633 238.711 71.45 238.554 71.15 238.401L70.73 238.181L65.92 240.901L65.92 239.441L69.56 237.471L65.92 235.611L65.92 234.201L71.37 237.141C71.97 237.461 72.41 237.774 72.69 238.081C72.9633 238.381 73.1 238.801 73.1 239.341ZM73.07 230.383C73.07 230.723 73.0367 231.003 72.97 231.223L71.86 231.093C71.9067 230.953 71.93 230.809 71.93 230.663C71.93 230.163 71.6367 229.803 71.05 229.583C70.4633 229.356 69.4267 229.243 67.94 229.243L65.92 229.243L65.92 224.373L73 224.373L73 225.633L67.02 225.633L67.02 228.033L68.11 228.033C69.85 228.033 71.1133 228.216 71.9 228.583C72.68 228.943 73.07 229.543 73.07 230.383ZM73 219.217L65.92 219.217L65.92 217.957L68.73 217.957L68.73 216.907C68.73 216.107 68.9067 215.464 69.26 214.977C69.6133 214.484 70.1467 214.237 70.86 214.237C71.5667 214.237 72.1 214.484 72.46 214.977C72.82 215.464 73 216.101 73 216.887L73 219.217ZM71.94 217.957L71.94 217.007C71.94 216.007 71.5833 215.507 70.87 215.507C70.5167 215.507 70.25 215.637 70.07 215.897C69.8833 216.157 69.79 216.527 69.79 217.007L69.79 217.957L71.94 217.957ZM73 208.67L67.02 208.67L67.02 210.84L65.92 210.84L65.92 205.24L67.02 205.24L67.02 207.41L73 207.41L73 208.67ZM73 202.272L65.92 199.192L65.92 198.102L73 195.052L73 196.492L71.38 197.152L71.38 200.222L73 200.862L73 202.272ZM70.3 199.792L70.3 197.592L67.42 198.682L70.3 199.792ZM74.61 185.331L73 185.331L73 190.751L65.92 190.751L65.92 189.491L71.88 189.491L71.88 186.241L65.92 186.241L65.92 184.981L71.88 184.981L71.88 184.201L74.61 184.201L74.61 185.331ZM73 179.602L65.92 179.602L65.92 178.342L71.1 178.342L71.1 178.312L65.92 174.992L65.92 173.632L73 173.632L73 174.892L67.86 174.892L67.86 174.912L73 178.222L73 179.602ZM73 169.063L70 167.163C69.8733 167.656 69.64 168.04 69.3 168.313C68.96 168.586 68.5333 168.723 68.02 168.723C67.3 168.723 66.77 168.49 66.43 168.023C66.09 167.55 65.92 166.893 65.92 166.053L65.92 163.733L73 163.733L73 164.993L70.17 164.993L70.17 165.873L73 167.533L73 169.063ZM69.14 165.933L69.14 164.993L66.98 164.993L66.98 165.973C66.98 166.973 67.3367 167.473 68.05 167.473C68.4167 167.473 68.69 167.336 68.87 167.063C69.05 166.79 69.14 166.413 69.14 165.933Z" fill="#00E0FF"/>
<defs>
<filter id="filter0_d_177_2213" x="6" y="14" width="126" height="126" filterUnits="userSpaceOnUse" color-interpolation-filters="sRGB">
<feFlood flood-opacity="0" result="BackgroundImageFix"/>
<feColorMatrix in="SourceAlpha" type="matrix" values="0 0 0 0 0 0 0 0 0 0 0 0 0 0 0 0 0 0 127 0" result="hardAlpha"/>
<feMorphology radius="7" operator="erode" in="SourceAlpha" result="effect1_dropShadow_177_2213"/>
<feOffset dy="7"/>
<feGaussianBlur stdDeviation="10"/>
<feComposite in2="hardAlpha" operator="out"/>
<feColorMatrix type="matrix" values="0 0 0 0 0 0 0 0 0 0.88 0 0 0 0 1 0 0 0 1 0"/>
<feBlend mode="normal" in2="BackgroundImageFix" result="effect1_dropShadow_177_2213"/>
<feBlend mode="normal" in="SourceGraphic" in2="effect1_dropShadow_177_2213" result="shape"/>
</filter>
<linearGradient id="paint0_linear_177_2213" x1="69" y1="20" x2="69" y2="120" gradientUnits="userSpaceOnUse">
<stop stop-color="#03E1FF" stop-opacity="0.66"/>
<stop offset="1" stop-color="#13CDC2"/>
</linearGradient>
</defs>
</svg>
